<svg xmlns="http://www.w3.org/2000/svg" viewBox="0 0 1280 1024"><defs><style>.cls-1{fill:#1a0240;}.cls-2{fill:none;stroke:#0cf2db;stroke-miterlimit:10;stroke-width:100px;}</style></defs><g id="tea_sandwich" data-name="tea sandwich"><rect class="cls-1" width="1280" height="1024"/></g><g id="backgrouund"><path class="cls-2" d="M1163.51,0c0,102.4-66,102.4-66,204.8s66,102.39,66,204.79-66,102.4-66,204.8,66,102.4,66,204.8-66,102.41-66,204.81"/><path class="cls-2" d="M913.51,0c0,102.4-66,102.4-66,204.8s66,102.39,66,204.79-66,102.4-66,204.8,66,102.4,66,204.8-66,102.41-66,204.81"/><path class="cls-2" d="M663.51,0c0,102.4-66,102.4-66,204.8s66,102.39,66,204.79-66,102.4-66,204.8,66,102.4,66,204.8-66,102.41-66,204.81"/><path class="cls-2" d="M413.51,0c0,102.4-66,102.4-66,204.8s66,102.39,66,204.79-66,102.4-66,204.8,66,102.4,66,204.8-66,102.41-66,204.81"/><path class="cls-2" d="M163.51,0c0,102.4-66,102.4-66,204.8s66,102.39,66,204.79-66,102.4-66,204.8,66,102.4,66,204.8-66,102.41-66,204.81"/></g></svg>